<svg id="Layer_1" data-name="Layer 1" xmlns="http://www.w3.org/2000/svg" xmlns:xlink="http://www.w3.org/1999/xlink" viewBox="0 0 208.25 88.91"><defs><radialGradient id="radial-gradient" cx="78.09" cy="15.85" r="27.98" gradientTransform="translate(0 40.53) scale(1 1.08)" gradientUnits="userSpaceOnUse"><stop offset="0" stop-color="#add4f1"/><stop offset="0.16" stop-color="#8fc9ed"/><stop offset="0.65" stop-color="#2ea8e0"/><stop offset="1" stop-color="#2967b2"/></radialGradient></defs><title>Artboard 1</title><text transform="translate(72.98 57.26)" font-size="67.37" fill="#7c92c4" font-family="BebasNeueLight, Bebas Neue">SAUNA</text><path d="M83.88,58.1c2.05,2.83,4.28,5.78,4.62,9a14.16,14.16,0,0,1-4.06,11.18l-.72.71a10.17,10.17,0,0,1-2.08,1.51,16.63,16.63,0,0,1-2.79,1.26,12,12,0,0,1-12.59-3.84,13.16,13.16,0,0,1-1.67-2.42A10.56,10.56,0,0,1,63,72.07c-1.14-4.71-.16-8.09,3.74-13.25,2.15-3.16,8.57-10.15,8.78-15.14C75.87,48.56,81.17,54.38,83.88,58.1Z" fill-rule="evenodd" opacity="0.46" fill="url(#radial-gradient)"/><text transform="translate(0 57.26)" font-size="67.37" fill="#3257a6" font-family="BebasNeueBook, Bebas Neue">SOL</text><text transform="translate(93.63 79.12)" font-size="27.68" fill="#231f20" font-family="EuphoriaScript-Regular, Euphoria Script">&amp; salt lounge</text></svg>